<?xml version="1.0" encoding="iso-8859-1"?>
<!-- Generator: Adobe Illustrator 15.0.2, SVG Export Plug-In . SVG Version: 6.00 Build 0)  -->
<!DOCTYPE svg PUBLIC "-//W3C//DTD SVG 1.1//EN" "http://www.w3.org/Graphics/SVG/1.1/DTD/svg11.dtd">
<svg version="1.1" id="Base" xmlns="http://www.w3.org/2000/svg" xmlns:xlink="http://www.w3.org/1999/xlink" x="0px" y="0px"
	 width="605px" height="605px" viewBox="0 0 605 605" style="enable-background:new 0 0 605 605;" xml:space="preserve">
<style type="text/css">
<![CDATA[
	.st0{fill:#808285;}
	.st1{fill:#1C75BC;}
	.st2{fill:#ED1C24;}
	.st3{fill:none;stroke:#FFFFFF;stroke-width:4;stroke-miterlimit:10;stroke-dasharray:50.016,30.0096;}
	.st4{fill:#BCBEC0;}
	.st5{fill:#8DC63F;}
	.st6{fill:#F1F2F2;}
	.st7{fill:#C2B59B;}
	.st8{fill:none;}
	.st9{fill:none;stroke:#FFFFFF;stroke-width:4;stroke-miterlimit:10;}
]]>
</style>
<rect x="-7.675" y="-8.985" class="st0" width="621.149" height="621.149"/>
<g>
	<rect x="-58.992" y="-18.406" class="st4" width="210" height="641"/>
	<rect x="459.008" y="-18.406" class="st4" width="210" height="641"/>
</g>
<g>
	<rect x="508.508" y="-18.406" class="st5" width="210" height="641"/>
	<rect x="-108.492" y="-18.406" class="st5" width="210" height="641"/>
</g>
<g>
	<g>
		<path class="st2" d="M199.499,581.825c15.902,0.308,23.039-5.265,23.822-26.624c0.84-22.854,5.758-82.285,1.91-98.162
			c-1.895-7.811,0.434-17.85-26.273-18.369c-26.711-0.52-24.774,9.602-26.97,17.334c-4.462,15.715-1.86,75.292-1.909,98.161
			c-0.046,21.375,6.869,27.22,22.77,27.53L199.499,581.825z"/>
	</g>
	<g>
		<path class="st7" d="M214.6,495.174c0,0-6.525-2.256-16.693-2.454c-10.168-0.197-16.775,1.803-16.775,1.803
			s-6.361-16.656-8.111-28.388c-0.271-1.827,15.289-2.897,25.455-2.699c10.168,0.197,25.568,1.559,25.332,3.687
			C222.497,478.796,214.6,495.174,214.6,495.174z"/>
		<path class="st7" d="M175.171,533.838c0,0,11.716,2.358,21.882,2.555c10.168,0.199,21.969-1.702,21.969-1.702
			s-2.035,16.66-0.553,28.237c0.23,1.807-11.52,3.716-20.297,3.545c-8.779-0.17-23.759-2.294-23.548-4.396
			C175.782,550.549,175.171,533.838,175.171,533.838z"/>
		<g>
			<path class="st7" d="M171.395,474.143c-0.785,31.973-0.746,85.95,0.792,68.814c1.707-19.023,5.176-26.267,5.176-26.267
				l1.628-20.843C175.74,489.939,171.534,468.482,171.395,474.143z"/>
			<path class="st7" d="M225.12,475.188c-0.457,31.979-2.596,85.914-3.469,68.731c-0.965-19.076-4.148-26.447-4.148-26.447
				l-0.816-20.891C220.163,490.805,225.202,469.526,225.12,475.188z"/>
		</g>
	</g>
	<g>
		<path class="st6" d="M180.801,443.66c-2.927-0.057-7.454,7.477-6.04,10.04c0.709,1.278,4.314-3.005,5.917-3.694
			C183.202,448.927,180.801,443.66,180.801,443.66z"/>
		<path class="st6" d="M216.901,444.363c2.93,0.057,7.162,7.76,5.648,10.268c-0.758,1.25-4.197-3.172-5.773-3.924
			C214.303,449.531,216.901,444.363,216.901,444.363z"/>
	</g>
</g>
<g>
	<g>
		<line class="st9" x1="356.341" y1="-18" x2="356.341" y2="7"/>
		<line class="st3" x1="356.341" y1="37.01" x2="356.341" y2="582.184"/>
		<line class="st9" x1="356.341" y1="597.188" x2="356.341" y2="622.188"/>
	</g>
</g>
<g>
	<g>
		<line class="st9" x1="254.341" y1="-18" x2="254.341" y2="7"/>
		<line class="st3" x1="254.341" y1="37.01" x2="254.341" y2="582.184"/>
		<line class="st9" x1="254.341" y1="597.188" x2="254.341" y2="622.188"/>
	</g>
</g>
<g>
	<path class="st1" d="M407.305,24.807c0,0-15.579-0.107-21.361,10.382c-3.261,5.915-1.934,81.961,1.467,110.5
		c1.679,14.078,23.303,14.207,23.303,14.207l6.489-0.148c0,0,21.593-1.128,22.62-15.27c2.078-28.666-0.105-104.692-3.639-110.45
		c-6.261-10.211-21.818-9.385-21.818-9.385L407.305,24.807z"/>
	<path class="st7" d="M409.65,98.448c-9.501,0.22-10.996-1.262-18.828-1.082c0,0-5.428,20.633-2.486,22.678
		c5.047,3.505,17.329,5.044,23.371,4.903l2.886-0.065c6.046-0.141,18.243-2.245,23.12-5.979c2.843-2.178-3.529-22.538-3.529-22.538
		c-7.832,0.181-9.257,1.73-18.759,1.949L409.65,98.448z"/>
	<path class="st7" d="M413.832,46.497c8.371-0.193,9.678,0.693,16.578,0.533c0,0,3.611-12.068,1.252-13.661
		c-7.811-5.272-14.226-6.208-19.549-6.085l-2.542,0.059c-5.325,0.123-11.688,1.354-19.246,6.981
		c-2.284,1.702,1.881,13.589,1.881,13.589c6.901-0.16,8.167-1.104,16.536-1.298L413.832,46.497z"/>
	<g>
		<path class="st7" d="M435.73,39.945l-2.797,10.277l1.222,37.306c0,0,4.912,18.808,4.839,15.634
			C438.268,71.713,435.73,39.945,435.73,39.945z"/>
		<path class="st7" d="M386.67,41.079l3.27,10.136l0.5,37.322c0,0-4.038,19.014-4.111,15.841
			C385.602,72.93,386.67,41.079,386.67,41.079z"/>
	</g>
	<g>
		<path class="st6" d="M431.266,152.195c0.879-0.625,3.766-5.893,5.672-5.608c2.66,0.397-3.93,8.384-6.705,8.164
			C428.063,154.578,429.363,153.546,431.266,152.195z"/>
		<path class="st6" d="M396.315,153.002c-0.908-0.585-4.032-5.713-5.925-5.341c-2.642,0.52,4.311,8.193,7.075,7.847
			C399.622,155.235,398.278,154.265,396.315,153.002z"/>
	</g>
	<path class="st8" d="M407.305,24.807c0,0-15.579-0.107-21.361,10.382c-3.261,5.915-1.934,81.961,1.467,110.5
		c1.679,14.078,23.303,14.207,23.303,14.207l6.489-0.148c0,0,21.593-1.128,22.62-15.27c2.078-28.666-0.105-104.692-3.639-110.45
		c-6.261-10.211-21.818-9.385-21.818-9.385L407.305,24.807z"/>
</g>
</svg>
